# xmcd
#
# Track frame offsets:
#	150
#	15195
#	30285
#	44207
#
# Disc length: 859 seconds
#
# Revision: 0
# Processed by: cddbd v1.4PL0 Copyright (c) Steve Scherf et al.
# Submitted via: dBpowerAMP V4.0
#
DISCID=23035904
DTITLE=Various Artist - NASCAR Hotter'n Asphalt
DYEAR=1900
DGENRE=Country
TTITLE0=White Knuckle Ride
TTITLE1=Save Up
TTITLE2=Runnin' Wide Open
TTITLE3=The Fastest Horse in a One Horse Town
EXTD=NASCAR Fast Track Jams
EXTT0=
EXTT1=
EXTT2=
EXTT3=
PLAYORDER=
